<svg width="474" height="60" xmlns="http://www.w3.org/2000/svg" xmlns:xlink="http://www.w3.org/1999/xlink" xml:space="preserve" overflow="hidden"><defs><clipPath id="clip0"><rect x="0" y="0" width="474" height="60"/></clipPath><clipPath id="clip1"><rect x="107" y="-1940" width="1449" height="2167"/></clipPath><clipPath id="clip2"><rect x="107" y="-1940" width="1449" height="2167"/></clipPath><clipPath id="clip3"><rect x="107" y="-1940" width="1449" height="2167"/></clipPath></defs><g clip-path="url(#clip0)"><path d="M687.265-376.923 1528.2-376.923 1528.2-129.954 687.265-129.954Z" fill="#00974A" fill-rule="evenodd" transform="matrix(1 0 0 1.00086 -47.9619 313.34)"/><path d="M0 0-6.8376 0C-7.87315 0-9.08066 0.0635534-10.4527 0.179445-11.8135 0.299075-13.0621 0.620581-14.1799 1.12901-15.2977 1.65239-16.1762 2.46363-16.8043 3.5889-17.4361 4.69548-17.5258 6.29179-17.066 8.37036-16.3893 11.4695-14.7556 13.7201-12.1836 15.1145-9.60405 16.5052-6.36282 17.2006-2.45989 17.2006-1.58884 17.2006 3.61133 17.1968 3.61133 17.1968ZM14.8341-7.60398 22.1465 26.4046C24.0681 35.1675 23.1447 40.805 19.3576 44.7902 15.5781 48.7754 9.53675 50.0577 1.25238 50.0577L-10.9611 50.0577-10.9648 50.0577-15.7575 50.0577C-17.5707 49.953-18.4716 49.0371-18.9053 47.437L-20.5651 39.6125C-21.2605 36.9059-19.1109 37.0517-19.1109 37.0517L-15.5631 37.0517-7.4694 37.0517 0.448612 37.0517C0.448612 37.0517 5.12166 37.2647 6.2731 33.5749 6.65442 32.3823 6.62451 30.8234 6.20581 28.9131L5.87309 27.8738C5.87309 27.8738 0.635534 27.8364-1.67108 27.8364-4.86371 27.8364-8.12736 27.4999-11.462 26.8233-14.793 26.1429-17.9295 25.0288-20.853 23.4811-23.7839 21.9222-26.3522 19.8586-28.5467 17.2678-30.7561 14.6771-32.2814 11.4695-33.1188 7.64884-33.96 3.82442-34.0198 0.601888-33.2796-2.03371-32.5356-4.65809-31.1449-6.80396-29.0776-8.47878-27.0139-10.1536-24.3783-11.3462-21.1483-12.0639-17.9183-12.778-14.2734-13.1369-10.2097-13.1369L7.72361-13.1369C13.9369-13.1369 14.8341-7.60398 14.8341-7.60398" fill="#FFFFFF" transform="matrix(1 0 0 -1.00086 969.392 85.3189)"/><path d="M0 0-6.84508 0C-7.87315 0-9.0844 0.0635534-10.4452 0.179445-11.8172 0.299075-13.0621 0.620581-14.1836 1.12901-15.3089 1.65239-16.1725 2.46363-16.808 3.5889-17.4435 4.69548-17.5295 6.29179-17.0697 8.37036-16.393 11.4695-14.7594 13.7201-12.1873 15.1145-9.60778 16.5052-6.36656 17.2006-2.46363 17.2006-1.5851 17.2006 3.60759 17.1968 3.60759 17.1968ZM14.8379-7.60398 22.139 26.4046C24.0681 35.1675 23.1372 40.805 19.3539 44.7902 15.5669 48.7754 9.53675 50.0577 1.25238 50.0577L-10.9611 50.0577-10.9648 50.0577-15.7575 50.0577C-17.5707 49.953-18.4791 49.0371-18.909 47.437L-20.5689 39.6125C-21.2642 36.9059-19.1072 37.0517-19.1072 37.0517L-15.5743 37.0517-7.47314 37.0517 0.441136 37.0517C0.441136 37.0517 5.1254 37.2647 6.26936 33.5749 6.65068 32.3823 6.62825 30.8234 6.20581 28.9131L5.87309 27.8738C5.87309 27.8738 0.631796 27.8364-1.67856 27.8364-4.86745 27.8364-8.12736 27.4999-11.4658 26.8233-14.7967 26.1429-17.9333 25.0288-20.8605 23.4811-23.7877 21.9222-26.3485 19.8586-28.5542 17.2678-30.7561 14.6771-32.2739 11.4695-33.1188 7.64884-33.9562 3.82442-34.016 0.601888-33.2796-2.03371-32.5431-4.65809-31.1412-6.80396-29.0776-8.47878-27.0139-10.1536-24.3746-11.3462-21.1521-12.0639-17.9221-12.778-14.2734-13.1369-10.2097-13.1369L7.72361-13.1369C13.9294-13.1369 14.8379-7.60398 14.8379-7.60398" fill="#FFFFFF" transform="matrix(1 0 0 -1.00086 1135.79 85.3189)"/><path d="M0 0C-0.250475-1.18135-1.41687-2.14212-2.59448-2.14212L-14.8902-2.14212C-16.0603-2.14212-16.8118-1.18135-16.565 0L-13.8285 12.6284C-13.5743 13.8098-12.4079 14.7706-11.2377 14.7706L1.05424 14.7706C2.23185 14.7706 2.98701 13.8098 2.7328 12.6284Z" fill="#FFFFFF" transform="matrix(1 0 0 -1.00086 1051.72 29.3519)"/><path d="M0 0 12.9051 61.0898C13.1518 62.2525 14.307 63.1983 15.4659 63.1983L27.8738 63.1983C29.0402 63.1983 29.7767 62.2525 29.5187 61.0898L17.5482 5.46933C17.2604 4.21696 17.0548 0 12.3107 0Z" fill="#FFFFFF" transform="matrix(1 0 0 -1.00086 1020.6 98.5618)"/><path d="M0 0-35.9899 0-35.9974 0-43.3547 0-43.5117 0C-45.3323-0.108415-46.237-1.02433-46.6707-2.6356L-48.3791-10.4527C-49.0819-13.1593-46.9249-13.0135-46.9249-13.0135L-45.5342-13.0135-21.9895-13.0135C-21.9895-13.0135-41.706-34.5357-52.3531-45.5454-55.3438-48.6371-57.0523-51.4858-57.5121-53.2802L-59.6842-63.1983-15.8547-63.1983C-15.4771-63.1983-13.7687-63.0562-13.2229-60.6412L-11.462-52.8241C-11.1331-51.2615-11.5705-50.3568-13.2154-50.2147L-13.2116-50.1997-13.3462-50.1997-19.1819-50.1997-19.1857-50.1997-38.2666-50.1997C-38.2666-50.1997-3.64498-13.1144-2.63186-12.0116-1.06172-10.2844 0 0 0 0" fill="#FFFFFF" transform="matrix(1 0 0 -1.00086 1106.84 35.3086)"/><path d="M0 0C1.64491 0 1.89539-1.10284 1.4879-2.75523L-0.306552-10.9162C-0.770118-13.1331-2.34026-13.0135-2.34026-13.0135L-20.61-13.0135C-25.6494-13.0135-30.3561-16.7744-32.3001-26.442L-34.1394-35.5638C-36.0834-45.2314-31.0477-49.938-26.0158-49.938L-11.0882-49.938C-11.0882-49.938-8.68439-49.8932-9.09188-51.7886L-10.9461-60.5365C-11.2751-62.1627-12.0864-63.0413-13.1182-63.0413L-30.072-63.0413C-44.8687-63.0413-54.1475-53.2653-50.5811-35.5638L-48.7492-26.442C-45.1902-8.74047-37.7694 0.198137-17.466 0Z" fill="#FFFFFF" transform="matrix(1 0 0 -1.00086 938.428 35.2975)"/><path d="M0 0-1.83557-9.12179C-3.62255-18.0118-7.75352-21.896-12.3219-22.4717L-19.4399-22.4717C-24.4718-22.4717-29.5037-17.7576-27.5598-8.09372L-25.7167 1.03181C-23.9297 9.92181-19.8025 13.8098-15.2379 14.3706L-8.11615 14.3706C-3.08795 14.3706 1.94025 9.66386 0 0M6.86003 25.2345C3.79451 26.6924 0.149537 27.4513-3.90667 27.47L-10.8901 27.47C-14.8042 27.5037-18.2249 27.1971-21.2418 26.5653-33.9039 23.8961-39.2947 15.3201-42.1733 1.03181L-44.0051-8.09372C-46.5772-20.8642-42.4686-29.5037-34.4235-33.3282-31.3543-34.7862-27.7093-35.5451-23.6494-35.56L-16.6697-35.56C-12.7593-35.6011-9.32366-35.2983-6.31796-34.6665 6.3516-31.9935 11.7275-23.4176 14.6136-9.12179L16.4416 0C19.0137 12.7668 14.9051 21.41 6.86003 25.2345" fill="#FFFFFF" transform="matrix(1 0 0 -1.00086 865.448 62.7926)"/><path d="M0 0 0 0-12.277 0C-13.4621 0-14.6248-0.95704-14.879-2.14212L-15.8024-6.43759-15.8099-6.43759-31.3842-78.4735C-31.3842-78.4735-33.1973-83.9204-27.7915-83.9204L-15.6902-83.9204-1.09162-14.9089C-1.08041-14.8603-1.06172-14.8192-1.0505-14.7706L1.67856-2.14212C1.93651-0.95704 1.18882 0 0 0" fill="#FFFFFF" transform="matrix(1 0 0 -1.00086 1025.62 14.5692)"/><path d="M0 0C-9.50685 0-7.37594 8.06007-7.37594 8.06007L3.75339 61.1122 5.3011 68.2414C5.55158 69.4228 4.80763 70.3836 3.61881 70.3836L-8.6657 70.3836C-9.84331 70.3836-11.0134 69.4228-11.2602 68.2414L-12.9275 60.7085-24.169 8.00399C-25.8513 0.355152-25.3877-5.08054-22.4381-8.46756-19.4735-11.8546-14.9276-13.5369-8.7928-13.5369L6.20581-13.5369 19.1707-13.5369 19.238-13.5369 19.238-13.5331C20.2436-13.4958 21.84-13.4584 21.3465-11.4471 21.3465-11.4471 16.9314-5.3011 15.2715 1.6602e-15Z" fill="#FFFFFF" transform="matrix(1 0 0 -1.00086 798.063 85.0125)"/><path d="M0 0C0 15.8162 42.2388 21.4572 42.2388 21.4572 42.2388 21.4572 31.2816 21.4572 10.6221 20.9739-18.1625 20.3035-38.8791 12.3682-38.8791-6.1555-38.8791-24.0244-13.1866-37.3799-0.808088-50.7744 6.1529-57.2833 10.1076-65.1641 11.1313-69.5709 13.5894-66.84 17.1725-62.111 16.8399-55.9659 16.3618-47.1913 9.9283-39.3157-5.70078-25.8874-19.1187-14.3559-21.6183-9.82177-21.9691-4.16256-23.2371 16.1851 15.1146 18.243 15.1146 18.243 15.1146 18.243-17.726 14.1688-16.6892-1.86302-16.1358-10.3778-8.71487-16.128 4.46657-26.103 24.04-40.9137 23.0422-51.7826 23.0422-51.7826 23.0422-51.7826 29.2159-43.4029 27.0203-33.5369 23.8841-19.4123 0-11.1209 0 0" fill="#D3D800" transform="matrix(1 0 0 -1.00086 728.859 34.7258)"/><g clip-path="url(#clip1)"><path d="M0 0C-1.96204 2.06658-0.787733 6.1803 0.216383 10.8216L3.64205 26.5933 17.7313 26.5933 20.2841 38.3339 6.18516 38.3339 8.68451 50.0478-4.59511 50.0478-13.2991 9.74212C-14.6095 3.71985-15.1006-0.989529-12.4335-6.0636-9.94878-10.7778-1.47092-15.2806 9.26316-12.436L11.6361-1.54143C4.35685-2.42155 1.43445-1.49523 0 0" fill="#FCCE06" transform="matrix(1 0 0 -1.0582 1352.12 85.7147)"/></g><path d="M0 0-6.33833-29.1097-29.6445-29.1097-23.3232 0-36.7268 0-50.2788-62.4838-36.8849-62.4838-32.2047-40.8333-8.88874-40.8333-13.5835-62.4838-0.299047-62.4838 13.2675 0Z" fill="#FCCE06" transform="matrix(1 0 0 -1.0582 1239.65 32.7526)"/><g clip-path="url(#clip2)"><path d="M0 0C-4.6486-3.80008-7.29139-8.77447-9.00301-16.6299L-15.4556-46.3547-2.16383-46.3547 3.19226-21.704C4.45896-15.937 5.42661-12.3314 7.63907-10.1117 10.683-7.06772 15.0934-6.89753 20.3887-7.32543L22.9464 4.4152C13.6054 6.73949 5.44849 4.45896 0 0" fill="#FCCE06" transform="matrix(1 0 0 -1.0582 1316.18 49.8222)"/></g><path d="M0 0-41.4848 0-44.028-11.7382-19.9608-11.7382-50.0624-39.4815-52.5107-50.7675-11.021-50.7675-8.46327-39.0366-32.6739-39.0366-2.42155-11.1693Z" fill="#FCCE06" transform="matrix(1 0 0 -1.0582 1419.92 45.1508)"/><g clip-path="url(#clip3)"><path d="M0 0C-4.48813 0-10.6295-1.35908-16.664-5.99552-30.2645-16.4427-37.0186-52.6225-7.80682-52.6225-0.235834-52.6225 8.18853-50.2788 14.0358-45.9584L8.75016-37.2228C4.32767-40.5488-17.9379-47.7891-15.5942-30.1211L19.2144-30.1211C19.229-30.087 23.6539-15.9589 17.2742-7.41539 11.8379-0.128858 1.82832 0 0 0M8.64318-19.3748-12.6645-19.3748C-11.9157-16.5643-7.39108-9.65459 1.01384-10.4107 10.0509-11.2276 8.64318-19.3748 8.64318-19.3748" fill="#FCCE06" transform="matrix(1 0 0 -1.0582 1279.9 44.1634)"/></g><path d="M0 0-4.31238 0C-4.96548 0-5.72705 0.0400823-6.59235 0.113173-7.45058 0.188622-8.23808 0.391391-8.94306 0.712049-9.64804 1.04214-10.2021 1.55378-10.5982 2.26347-10.9967 2.96137-11.0533 3.96814-10.7633 5.27907-10.3365 7.23367-9.30616 8.65305-7.684 9.5325-6.05714 10.4096-4.01294 10.8481-1.55142 10.8481-1.00206 10.8481 2.27762 10.8458 2.27762 10.8458ZM9.35567-4.79572 13.9675 16.653C15.1794 22.1796 14.597 25.7352 12.2086 28.2486 9.82487 30.762 6.0147 31.5707 0.789856 31.5707L-6.91301 31.5707-6.91537 31.5707-9.93804 31.5707C-11.0816 31.5047-11.6498 30.927-11.9233 29.9179L-12.9701 24.983C-13.4087 23.276-12.053 23.368-12.053 23.368L-9.81544 23.368-4.71084 23.368 0.282934 23.368C0.282934 23.368 3.23016 23.5023 3.95635 21.1752 4.19685 20.4231 4.17799 19.4399 3.91391 18.2351L3.70407 17.5796C3.70407 17.5796 0.400823 17.556-1.05393 17.556-3.06747 17.556-5.12581 17.3438-7.22895 16.9171-9.32973 16.488-11.3079 15.7853-13.1517 14.8092-15.0002 13.826-16.62 12.5245-18.004 10.8906-19.3975 9.25664-20.3594 7.23367-20.8876 4.82402-21.4181 2.41201-21.4558 0.379603-20.989-1.28263-20.5198-2.93779-19.6427-4.29116-18.3388-5.34744-17.0373-6.40373-15.3751-7.15586-13.338-7.60856-11.3008-8.05889-9.002-8.28524-6.4391-8.28524L4.87117-8.28524C8.7898-8.28524 9.35567-4.79572 9.35567-4.79572" fill="#00974A" transform="matrix(1 0 0 -1.00086 181.308 46.5897)"/><path d="M0 0-4.31709 0C-4.96548 0-5.7294 0.0400823-6.58764 0.113173-7.45294 0.188622-8.23808 0.391391-8.94542 0.712049-9.65511 1.04214-10.1998 1.55378-10.6006 2.26347-11.0014 2.96137-11.0556 3.96814-10.7656 5.27907-10.3389 7.23367-9.30851 8.65305-7.68636 9.5325-6.05949 10.4096-4.0153 10.8481-1.55378 10.8481-0.999699 10.8481 2.27526 10.8458 2.27526 10.8458ZM9.35803-4.79572 13.9628 16.653C15.1794 22.1796 14.5923 25.7352 12.2062 28.2486 9.81779 30.762 6.0147 31.5707 0.789856 31.5707L-6.91301 31.5707-6.91537 31.5707-9.93804 31.5707C-11.0816 31.5047-11.6545 30.927-11.9257 29.9179L-12.9725 24.983C-13.4111 23.276-12.0506 23.368-12.0506 23.368L-9.82251 23.368-4.7132 23.368 0.278218 23.368C0.278218 23.368 3.23252 23.5023 3.954 21.1752 4.19449 20.4231 4.18034 19.4399 3.91391 18.2351L3.70407 17.5796C3.70407 17.5796 0.398465 17.556-1.05864 17.556-3.06983 17.556-5.12581 17.3438-7.23131 16.9171-9.33209 16.488-11.3103 15.7853-13.1564 14.8092-15.0026 13.826-16.6176 12.5245-18.0087 10.8906-19.3975 9.25664-20.3547 7.23367-20.8876 4.82402-21.4157 2.41201-21.4534 0.379603-20.989-1.28263-20.5245-2.93779-19.6403-4.29116-18.3388-5.34744-17.0373-6.40373-15.3727-7.15586-13.3403-7.60856-11.3032-8.05889-9.002-8.28524-6.4391-8.28524L4.87117-8.28524C8.78509-8.28524 9.35803-4.79572 9.35803-4.79572" fill="#00974A" transform="matrix(1 0 0 -1.00086 286.252 46.5897)"/><path d="M0 0C-0.157971-0.745058-0.893599-1.35101-1.6363-1.35101L-9.39104-1.35101C-10.129-1.35101-10.6029-0.745058-10.4473 0L-8.72143 7.96458C-8.5611 8.70964-7.82547 9.31559-7.08749 9.31559L0.664894 9.31559C1.40759 9.31559 1.88387 8.70964 1.72354 7.96458Z" fill="#00974A" transform="matrix(1 0 0 -1.00086 233.232 11.2921)"/><path d="M0 0 8.13906 38.5285C8.29467 39.2617 9.02322 39.8583 9.75414 39.8583L17.5796 39.8583C18.3152 39.8583 18.7797 39.2617 18.617 38.5285L11.0674 3.44943C10.8859 2.65958 10.7562 0 7.76417 0Z" fill="#00974A" transform="matrix(1 0 0 -1.00086 213.605 54.9418)"/><path d="M0 0-22.6983 0-22.7031 0-27.3432 0-27.4422 0C-28.5904-0.0683756-29.161-0.646032-29.4345-1.66223L-30.512-6.59235C-30.9553-8.29939-29.5949-8.20743-29.5949-8.20743L-28.7178-8.20743-13.8685-8.20743C-13.8685-8.20743-26.3034-21.7812-33.0183-28.7248-34.9046-30.6747-35.9821-32.4713-36.2721-33.6031L-37.642-39.8583-9.99934-39.8583C-9.76121-39.8583-8.6837-39.7687-8.33947-38.2455L-7.22895-33.3154C-7.02147-32.3299-7.29733-31.7593-8.33475-31.6697L-8.33239-31.6603-8.41727-31.6603-12.0978-31.6603-12.1001-31.6603-24.1342-31.6603C-24.1342-31.6603-2.29884-8.27109-1.65988-7.57555-0.669609-6.48625 0 0 0 0" fill="#00974A" transform="matrix(1 0 0 -1.00086 267.994 15.0489)"/><path d="M0 0C1.03742 0 1.19539-0.695545 0.938396-1.73768L-0.193338-6.88472C-0.485703-8.28288-1.47597-8.20743-1.47597-8.20743L-12.9984-8.20743C-16.1767-8.20743-19.1452-10.5794-20.3712-16.6766L-21.5312-22.4296C-22.7573-28.5268-19.5814-31.4952-16.4078-31.4952L-6.99318-31.4952C-6.99318-31.4952-5.47712-31.4669-5.73412-32.6623L-6.90358-38.1795C-7.11106-39.2052-7.6227-39.7592-8.27345-39.7592L-18.966-39.7592C-28.2981-39.7592-34.1501-33.5936-31.9008-22.4296L-30.7454-16.6766C-28.5008-5.51249-23.8206 0.124962-11.0155 0Z" fill="#00974A" transform="matrix(1 0 0 -1.00086 161.779 15.0418)"/><path d="M0 0-1.15767-5.75298C-2.28469-11.3598-4.89003-13.8095-7.77124-14.1726L-12.2605-14.1726C-15.434-14.1726-18.6076-11.1995-17.3816-5.10459L-16.2192 0.650747C-15.0921 6.25755-12.4892 8.70964-9.61031 9.06331L-5.11874 9.06331C-1.94753 9.06331 1.22369 6.09486 0 0M4.32653 15.915C2.39315 16.8345 0.0943112 17.3132-2.46388 17.325L-6.86821 17.325C-9.33681 17.3462-11.4942 17.1528-13.3969 16.7544-21.3827 15.0709-24.7826 9.66218-26.5981 0.650747L-27.7534-5.10459C-29.3756-13.1588-26.7844-18.6076-21.7104-21.0196-19.7747-21.9391-17.4759-22.4178-14.9153-22.4272L-10.5133-22.4272C-8.0471-22.4531-5.8803-22.2622-3.98465-21.8637 4.00587-20.1779 7.39636-14.7691 9.21656-5.75298L10.3695 0C11.9917 8.05182 9.40047 13.503 4.32653 15.915" fill="#00974A" transform="matrix(1 0 0 -1.00086 115.751 32.3826)"/><path d="M0 0 0 0-7.74295 0C-8.49037 0-9.22363-0.603592-9.38396-1.35101L-9.96634-4.0601-9.97105-4.0601-19.7936-49.4922C-19.7936-49.4922-20.9371-52.9274-17.5277-52.9274L-9.8956-52.9274-0.688472-9.40283C-0.681398-9.37217-0.669609-9.34624-0.662536-9.31559L1.05864-1.35101C1.22133-0.603592 0.749774 0 0 0" fill="#00974A" transform="matrix(1 0 0 -1.00086 216.771 1.96885)"/><path d="M0 0C-5.99583 0-4.6519 5.08337-4.6519 5.08337L2.36721 38.5426 3.34333 43.0389C3.5013 43.784 3.0321 44.3899 2.28233 44.3899L-5.46533 44.3899C-6.20803 44.3899-6.94602 43.784-7.10163 43.0389L-8.1532 38.288-15.243 5.04801C-16.304 0.223989-16.0117-3.20422-14.1514-5.34037-12.2817-7.47652-9.41461-8.53752-5.5455-8.53752L3.91391-8.53752 12.0907-8.53752 12.1331-8.53752 12.1331-8.53516C12.7674-8.51158 13.7741-8.48801 13.4629-7.21952 13.4629-7.21952 10.6784-3.34333 9.63153 1.04706e-15Z" fill="#00974A" transform="matrix(1 0 0 -1.00086 73.2526 46.3964)"/><path d="M0 0C0 9.97504 26.6394 13.5328 26.6394 13.5328 26.6394 13.5328 19.7288 13.5328 6.69919 13.2279-11.4548 12.8051-24.5205 7.80042-24.5205-3.88218-24.5205-15.1518-8.31663-23.575-0.509649-32.0227 3.88055-36.1278 6.37472-41.0981 7.02038-43.8774 8.57063-42.1551 10.8305-39.1725 10.6207-35.2969 10.3192-29.7629 6.26164-24.7958-3.5954-16.3268-12.0579-9.05406-13.6344-6.19445-13.8556-2.62527-14.6553 10.2077 9.53257 11.5056 9.53257 11.5056 9.53257 11.5056-11.1795 8.93607-10.5257-1.17498-10.1766-6.54514-5.49635-10.1717 2.817-16.4628 15.1617-25.8037 14.5324-32.6585 14.5324-32.6585 14.5324-32.6585 18.426-27.3736 17.0413-21.1513 15.0633-12.2431 0-7.01383 0 0" fill="#D3D800" transform="matrix(1 0 0 -1.00086 29.6065 14.6813)"/><path d="M0 0C-1.23743 1.30337-0.496812 3.89783 0.13647 6.82503L2.29699 16.772 11.1829 16.772 12.7929 24.1767 3.9009 24.1767 5.4772 31.5644-2.89807 31.5644-8.38754 6.14422C-9.21403 2.34606-9.52377-0.624082-7.84166-3.82423-6.27455-6.79743-0.927689-9.63724 5.84214-7.84319L7.33871-0.972157C2.7478-1.52724 0.904689-0.943023 0 0" fill="#FCCE06" transform="matrix(1 0 0 -1.0582 422.688 46.8393)"/><path d="M0 0-3.9975-18.3591-18.6964-18.3591-14.7096 0-23.1631 0-31.7101-39.4076-23.2628-39.4076-20.311-25.753-5.606-25.753-8.56694-39.4076-0.188605-39.4076 8.36761 0Z" fill="#FCCE06" transform="matrix(1 0 0 -1.0582 351.756 13.4368)"/><path d="M0 0C-2.93181-2.39666-4.59858-5.53394-5.67807-10.4883L-9.74764-29.2353-1.3647-29.2353 2.01332-13.6884C2.8122-10.0512 3.42248-7.77726 4.81785-6.37729 6.73763-4.45751 9.51917-4.35017 12.8588-4.62005L14.472 2.7846C8.58074 4.2505 3.43628 2.8122 0 0" fill="#FCCE06" transform="matrix(1 0 0 -1.0582 400.019 24.2024)"/><path d="M0 0-26.1639 0-27.7678-7.40312-12.589-7.40312-31.5736-24.9004-33.1177-32.0183-6.95077-32.0183-5.33766-24.6198-20.607-24.6198-1.52724-7.04431Z" fill="#FCCE06" transform="matrix(1 0 0 -1.0582 465.447 21.2562)"/><path d="M0 0C-2.8306 0-6.7039-0.857154-10.5097-3.78129-19.0874-10.3702-23.3471-33.1883-4.92365-33.1883-0.148737-33.1883 5.16439-31.7101 8.85215-28.9853L5.5186-23.4759C2.7294-25.5736-11.3132-30.1399-9.83504-18.9969L12.1182-18.9969C12.1274-18.9755 14.9182-10.065 10.8946-4.67678 7.46598-0.0812687 1.15309 0 0 0M5.45113-12.2194-7.98733-12.2194C-7.51505-10.4469-4.66145-6.08902 0.639416-6.56589 6.33896-7.08111 5.45113-12.2194 5.45113-12.2194" fill="#FCCE06" transform="matrix(1 0 0 -1.0582 377.14 20.6334)"/></g></svg>